<svg width="15" height="10" viewBox="0 0 15 10" fill="none" xmlns="http://www.w3.org/2000/svg">
<path d="M14.541 1.431L1.44056 1.53346C0.650243 1.53964 0.00528356 0.903967 -5.76041e-07 0.113647L14.5314 -5.58072e-07L14.541 1.431Z" fill="black"/>
<path d="M14.541 6.86785L1.44056 6.97031C0.650243 6.97649 0.00528356 6.34082 -5.76041e-07 5.5505L14.5314 5.43685L14.541 6.86785Z" fill="black"/>
<path d="M14.541 4.14943L6.55201 4.2072C5.76169 4.21291 5.11638 3.57686 5.11067 2.78654L14.5307 2.71843L14.541 4.14943Z" fill="black"/>
<path d="M14.541 9.58628L6.55201 9.64405C5.76169 9.64977 5.11638 9.01372 5.11067 8.2234L14.5307 8.15528L14.541 9.58628Z" fill="black"/>
</svg>
